<?xml version="1.0" encoding="UTF-8" standalone="no"?>
<!DOCTYPE svg PUBLIC "-//W3C//DTD SVG 1.1//EN"
 "http://www.w3.org/Graphics/SVG/1.1/DTD/svg11.dtd">
<!-- Generated by graphviz version 7.0.2 (0)
 -->
<!-- Title: grph Pages: 1 -->
<svg width="292pt" height="532pt"
 viewBox="0.00 0.00 291.50 532.00" xmlns="http://www.w3.org/2000/svg" xmlns:xlink="http://www.w3.org/1999/xlink">
<g id="graph0" class="graph" transform="scale(1 1) rotate(0) translate(4 528)">
<title>grph</title>
<polygon fill="white" stroke="none" points="-4,4 -4,-528 287.5,-528 287.5,4 -4,4"/>
<!-- FunctionName -->
<g id="node1" class="node">
<title>FunctionName</title>
<text text-anchor="start" x="42" y="-509.8" font-family="Times,serif" text-decoration="underline" font-size="14.00">tmp.get_name</text>
<text text-anchor="start" x="42" y="-481.8" font-family="Times,serif" font-size="14.00">Arguments:</text>
<text text-anchor="start" x="42" y="-467.8" font-family="Times,serif" font-size="14.00">Mem</text>
<text text-anchor="start" x="42" y="-453.8" font-family="Times,serif" font-size="14.00">HTD</text>
<text text-anchor="start" x="42" y="-439.8" font-family="Times,serif" font-size="14.00">PMS</text>
<text text-anchor="start" x="42" y="-425.8" font-family="Times,serif" font-size="14.00">GhostAssertions</text>
<text text-anchor="start" x="42" y="-397.8" font-family="Times,serif" font-size="14.00">Returns:</text>
<text text-anchor="start" x="42" y="-383.8" font-family="Times,serif" font-size="14.00">ret__char#v</text>
<text text-anchor="start" x="42" y="-369.8" font-family="Times,serif" font-size="14.00">Mem</text>
<text text-anchor="start" x="42" y="-355.8" font-family="Times,serif" font-size="14.00">HTD</text>
<text text-anchor="start" x="42" y="-341.8" font-family="Times,serif" font-size="14.00">PMS</text>
<text text-anchor="start" x="42" y="-327.8" font-family="Times,serif" font-size="14.00">GhostAssertions</text>
</g>
<!-- 1 -->
<g id="node2" class="node">
<title>1</title>
<polygon fill="none" stroke="black" points="124,-109 38,-109 38,-73 124,-73 124,-109"/>
<text text-anchor="start" x="46" y="-87.3" font-family="Times,serif" font-size="14.00">&lt;empty&gt;</text>
<text text-anchor="middle" x="33" y="-112.8" font-family="Times,serif" font-size="14.00">1</text>
</g>
<!-- Ret -->
<g id="node3" class="node">
<title>Ret</title>
<polygon fill="none" stroke="black" points="108,-36 54,-36 54,0 108,0 108,-36"/>
<text text-anchor="middle" x="81" y="-14.3" font-family="Times,serif" font-size="14.00">Ret</text>
</g>
<!-- 1&#45;&gt;Ret -->
<g id="edge1" class="edge">
<title>1&#45;&gt;Ret</title>
<path fill="none" stroke="#000000" d="M81,-72.81C81,-65.23 81,-56.1 81,-47.54"/>
<polygon fill="#000000" stroke="#000000" points="84.5,-47.54 81,-37.54 77.5,-47.54 84.5,-47.54"/>
</g>
<!-- 2 -->
<g id="node4" class="node">
<title>2</title>
<polygon fill="none" stroke="black" points="128,-196 10,-196 10,-160 128,-160 128,-196"/>
<text text-anchor="start" x="18" y="-175.3" font-family="Times,serif" font-weight="bold" font-size="14.00">assert</text>
<text text-anchor="start" x="67" y="-175.3" font-family="Times,serif" font-size="14.00"> False()</text>
<text text-anchor="middle" x="5" y="-199.8" font-family="Times,serif" font-size="14.00">2</text>
</g>
<!-- 2&#45;&gt;1 -->
<g id="edge2" class="edge">
<title>2&#45;&gt;1</title>
<path fill="none" stroke="#000000" d="M71.43,-159.8C73.01,-148.58 75.12,-133.67 76.95,-120.69"/>
<polygon fill="#000000" stroke="#000000" points="80.39,-121.36 78.32,-110.97 73.46,-120.38 80.39,-121.36"/>
<text text-anchor="middle" x="81" y="-130.8" font-family="Times,serif" font-size="14.00">T</text>
</g>
<!-- 3 -->
<g id="node5" class="node">
<title>3</title>
<polygon fill="none" stroke="black" points="283.5,-196 146.5,-196 146.5,-160 283.5,-160 283.5,-196"/>
<text text-anchor="start" x="154.5" y="-174.3" font-family="Times,serif" font-size="14.00">ret__char#v := 0</text>
<text text-anchor="middle" x="141.5" y="-199.8" font-family="Times,serif" font-size="14.00">3</text>
</g>
<!-- 3&#45;&gt;1 -->
<g id="edge3" class="edge">
<title>3&#45;&gt;1</title>
<path fill="none" stroke="#000000" d="M187.56,-159.59C167.51,-146.87 140.09,-129.48 118.09,-115.52"/>
<polygon fill="#000000" stroke="#000000" points="120,-112.59 109.68,-110.19 116.25,-118.51 120,-112.59"/>
</g>
<!-- 4 -->
<g id="node6" class="node">
<title>4</title>
<polygon fill="none" stroke="black" points="283,-283 147,-283 147,-247 283,-247 283,-283"/>
<text text-anchor="start" x="155" y="-268.8" font-family="Times,serif" font-weight="bold" font-size="14.00">assert</text>
<text text-anchor="start" x="204" y="-268.8" font-family="Times,serif" font-size="14.00"> (0 &lt;</text>
<text text-anchor="start" x="240" y="-268.8" font-family="Times,serif" baseline-shift="sub" font-size="14.00">s</text>
<text text-anchor="start" x="247" y="-268.8" font-family="Times,serif" font-size="14.00"> 16)</text>
<text text-anchor="start" x="169" y="-254.8" font-family="Times,serif" font-weight="bold" font-size="14.00">and</text>
<text text-anchor="start" x="199" y="-254.8" font-family="Times,serif" font-size="14.00"> (0 ≤</text>
<text text-anchor="start" x="235" y="-254.8" font-family="Times,serif" baseline-shift="sub" font-size="14.00">s</text>
<text text-anchor="start" x="242" y="-254.8" font-family="Times,serif" font-size="14.00"> 0)</text>
<text text-anchor="middle" x="142" y="-286.8" font-family="Times,serif" font-size="14.00">4</text>
</g>
<!-- 4&#45;&gt;3 -->
<g id="edge4" class="edge">
<title>4&#45;&gt;3</title>
<path fill="none" stroke="#000000" d="M215,-246.8C215,-235.58 215,-220.67 215,-207.69"/>
<polygon fill="#000000" stroke="#000000" points="218.5,-207.98 215,-197.98 211.5,-207.98 218.5,-207.98"/>
<text text-anchor="middle" x="220" y="-217.8" font-family="Times,serif" font-size="14.00">T</text>
</g>
<!-- 17 -->
<g id="node7" class="node">
<title>17</title>
<polygon fill="none" stroke="black" stroke-width="2" points="243.5,-440 186.5,-440 186.5,-404 243.5,-404 243.5,-440"/>
<text text-anchor="start" x="194.5" y="-419.3" font-family="Times,serif" font-style="italic" font-size="14.00">Entry</text>
<text text-anchor="middle" x="196" y="-443.8" font-family="Times,serif" font-size="14.00">17</text>
</g>
<!-- 17&#45;&gt;4 -->
<g id="edge5" class="edge">
<title>17&#45;&gt;4</title>
<path fill="none" stroke="#000000" d="M215,-403.22C215,-376.57 215,-326 215,-294.26"/>
<polygon fill="#000000" stroke="#000000" points="218.5,-294.61 215,-284.61 211.5,-294.61 218.5,-294.61"/>
</g>
</g>
</svg>
